<svg width="24" height="24" viewBox="0 0 24 24" fill="none" xmlns="http://www.w3.org/2000/svg">
<path d="M3 10C3 10.9319 3.0001 11.3981 3.15234 11.7656C3.35533 12.2555 3.74453 12.6447 4.23438 12.8477C4.60192 12.9999 5.06812 13 6 13H6.67578C7.25657 13 7.54743 13.0001 7.7793 13.1338C7.83775 13.1675 7.89288 13.2072 7.94336 13.252C8.14351 13.4297 8.23525 13.7058 8.41895 14.2568L8.54395 14.6328C8.76388 15.2926 8.87394 15.6228 9.13574 15.8115C9.39762 16.0003 9.74576 16 10.4414 16H13.5586C14.2542 16 14.6024 16.0003 14.8643 15.8115C15.1261 15.6228 15.2361 15.2926 15.4561 14.6328L15.5811 14.2568C15.7647 13.7058 15.8565 13.4297 16.0566 13.252C16.1071 13.2072 16.1622 13.1675 16.2207 13.1338C16.4526 13.0001 16.7434 13 17.3242 13H18C18.9319 13 19.3981 12.9999 19.7656 12.8477C20.2555 12.6447 20.6447 12.2555 20.8477 11.7656C20.9999 11.3981 21 10.9319 21 10V15C21 17.8284 20.9998 19.2424 20.1211 20.1211C19.2424 20.9998 17.8284 21 15 21H9C6.17157 21 4.75759 20.9998 3.87891 20.1211C3.00023 19.2424 3 17.8284 3 15V10Z" fill="#222222"/>
<path d="M3 7C3 5.11438 3 4.17157 3.58579 3.58579C4.17157 3 5.11438 3 7 3H17C18.8856 3 19.8284 3 20.4142 3.58579C21 4.17157 21 5.11438 21 7V17C21 18.8856 21 19.8284 20.4142 20.4142C19.8284 21 18.8856 21 17 21H7C5.11438 21 4.17157 21 3.58579 20.4142C3 19.8284 3 18.8856 3 17V7Z" stroke="#222222" stroke-width="2"/>
</svg>
