<svg width="24" height="24" viewBox="0 0 24 24" fill="none" xmlns="http://www.w3.org/2000/svg">
<path d="M16 2C18.8284 2 20.2424 2.00023 21.1211 2.87891C21.9998 3.75759 22 5.17157 22 8V16C22 18.8284 21.9998 20.2424 21.1211 21.1211C20.2424 21.9998 18.8284 22 16 22H8C5.17157 22 3.75759 21.9998 2.87891 21.1211C2.00023 20.2424 2 18.8284 2 16V8C2 5.17157 2.00023 3.75759 2.87891 2.87891C3.75759 2.00023 5.17157 2 8 2H16ZM17.5547 8.16797C17.1238 7.88068 16.5508 7.97184 16.2285 8.36328L16.168 8.44531L13.124 13.0117L12.665 12.0938C11.9782 10.7205 10.0637 10.6013 9.21191 11.8789L6.16797 16.4453L6.11523 16.5332C5.8782 16.9812 6.01454 17.5448 6.44531 17.832C6.87624 18.1193 7.44921 18.0282 7.77148 17.6367L7.83203 17.5547L10.876 12.9883L11.335 13.9062L11.4033 14.0312C12.1172 15.245 13.8465 15.3526 14.7051 14.2363L14.7881 14.1211L17.832 9.55469L17.8848 9.4668C18.1218 9.01884 17.9855 8.45515 17.5547 8.16797Z" fill="black"/>
</svg>
