<svg width="24" height="24" viewBox="0 0 24 24" fill="none" xmlns="http://www.w3.org/2000/svg">
<path d="M12 3C16.9706 3 21 7.02944 21 12C21 16.9706 16.9706 21 12 21C7.02944 21 3 16.9706 3 12C3 7.02944 7.02944 3 12 3ZM16.6406 8.23145C16.2429 7.89997 15.6629 7.92957 15.3008 8.28418L15.2314 8.35938L11.6338 12.6777L11.2139 13.1738C11.1023 13.3012 11.0144 13.394 10.9365 13.4648C10.9347 13.4665 10.9325 13.4681 10.9307 13.4697C10.9287 13.4683 10.9259 13.4673 10.9238 13.4658C10.84 13.4024 10.7445 13.3177 10.6221 13.2012L10.1582 12.7441L8.70703 11.293C8.31651 10.9024 7.68349 10.9024 7.29297 11.293C6.90245 11.6835 6.90245 12.3165 7.29297 12.707L8.74414 14.1582L9.24512 14.6514C9.40781 14.8056 9.5656 14.9465 9.71777 15.0615C10.0043 15.2781 10.3686 15.4835 10.8232 15.5146L11.0234 15.5166L11.2227 15.4961C11.6726 15.4239 12.0165 15.186 12.2822 14.9443C12.4234 14.8159 12.5687 14.6625 12.7168 14.4941L13.1699 13.958L16.7686 9.64062L16.8301 9.55859C17.1135 9.13846 17.0383 8.56293 16.6406 8.23145Z" fill="#222222"/>
</svg>
