<svg width="24" height="24" viewBox="0 0 24 24" fill="none" xmlns="http://www.w3.org/2000/svg">
<path d="M12.7002 16.88H13.4002C14.5502 16.88 15.4902 15.94 15.4902 14.79V14.09H12.7002V16.88Z" fill="black"/>
<path d="M8.50977 14.79C8.50977 15.94 9.44977 16.88 10.5998 16.88H11.2998V14.09H8.50977V14.79Z" fill="black"/>
<path d="M8.50977 12V12.7H11.2998V9.90997H10.5998C9.44977 9.90997 8.50977 10.85 8.50977 12Z" fill="black"/>
<path d="M20.03 6.82L14.28 2.79C12.71 1.69 10.31 1.75 8.8 2.92L3.79 6.83C2.78 7.61 2 9.21 2 10.47V17.37C2 19.92 4.07 22 6.61 22H17.38C19.92 22 21.99 19.93 21.99 17.38V10.6C22 9.25 21.13 7.59 20.03 6.82ZM16.88 14.79C16.88 16.71 15.31 18.28 13.39 18.28H10.6C8.68 18.28 7.11 16.72 7.11 14.79V12C7.11 10.08 8.68 8.51 10.6 8.51H13.39C15.31 8.51 16.88 10.07 16.88 12V14.79Z" fill="black"/>
<path d="M13.4002 9.90997H12.7002V12.7H15.4902V12C15.4902 10.85 14.5502 9.90997 13.4002 9.90997Z" fill="black"/>
</svg>
