<svg width="24" height="24" viewBox="0 0 24 24" fill="none" xmlns="http://www.w3.org/2000/svg">
<path d="M12 3.25C14.2604 3.25 15.8804 3.25137 17.1123 3.41699C18.3225 3.57972 19.0451 3.88885 19.5781 4.42188C20.1111 4.9549 20.4203 5.67747 20.583 6.8877C20.7486 8.1196 20.75 9.73963 20.75 12C20.75 14.2604 20.7486 15.8804 20.583 17.1123C20.4203 18.3225 20.1111 19.0451 19.5781 19.5781C19.0451 20.1111 18.3225 20.4203 17.1123 20.583C15.8804 20.7486 14.2604 20.75 12 20.75C9.73963 20.75 8.1196 20.7486 6.8877 20.583C5.67747 20.4203 4.9549 20.1111 4.42188 19.5781C3.88885 19.0451 3.57972 18.3225 3.41699 17.1123C3.25137 15.8804 3.25 14.2604 3.25 12C3.25 9.73963 3.25137 8.1196 3.41699 6.8877C3.57972 5.67747 3.88885 4.9549 4.42188 4.42188C4.9549 3.88885 5.67747 3.57972 6.8877 3.41699C8.1196 3.25137 9.73963 3.25 12 3.25Z" fill="black" stroke="black" stroke-width="1.5" stroke-linecap="round" stroke-linejoin="round"/>
<path d="M21.5 13.5H16.5743C15.7322 13.5 15.0706 14.2036 14.6995 14.9472C14.2963 15.7551 13.4889 16.5 12 16.5C10.5111 16.5 9.70373 15.7551 9.30054 14.9472C8.92942 14.2036 8.26777 13.5 7.42566 13.5H2.5" stroke="white" stroke-width="1.5" stroke-linejoin="round"/>
</svg>
