<svg width="24" height="24" viewBox="0 0 24 24" fill="none" xmlns="http://www.w3.org/2000/svg">
<path d="M15 4C16.8856 4 17.8283 4.00015 18.4141 4.58594C18.9998 5.17172 19 6.11438 19 8V17C19 18.8856 18.9998 19.8283 18.4141 20.4141C17.8283 20.9998 16.8856 21 15 21H9C7.11438 21 6.17172 20.9998 5.58594 20.4141C5.00015 19.8283 5 18.8856 5 17V8C5 6.11438 5.00015 5.17172 5.58594 4.58594C6.17172 4.00015 7.11438 4 9 4H15ZM9 16C8.44772 16 8 16.4477 8 17C8 17.5523 8.44772 18 9 18H13C13.5523 18 14 17.5523 14 17C14 16.4477 13.5523 16 13 16H9ZM9 12C8.44772 12 8 12.4477 8 13C8 13.5523 8.44772 14 9 14H15C15.5523 14 16 13.5523 16 13C16 12.4477 15.5523 12 15 12H9ZM9 8C8.44772 8 8 8.44772 8 9C8 9.55228 8.44772 10 9 10H15C15.5523 10 16 9.55228 16 9C16 8.44772 15.5523 8 15 8H9Z" fill="#222222"/>
</svg>
