<svg width="24" height="24" viewBox="0 0 24 24" fill="none" xmlns="http://www.w3.org/2000/svg">
<path d="M16 3C16.8278 3 17.4716 3.00157 17.9961 3.02832C15.748 3.27884 14 5.18508 14 7.5V11L13.9014 20.9668L11 20L8 21L5 20L2 21V7C2 5.11438 2.00015 4.17172 2.58594 3.58594C3.17172 3.00015 4.11438 3 6 3H16ZM5 14C4.44772 14 4 14.4477 4 15C4 15.5523 4.44772 16 5 16H9C9.55228 16 10 15.5523 10 15C10 14.4477 9.55228 14 9 14H5ZM5 10C4.44772 10 4 10.4477 4 11C4 11.5523 4.44772 12 5 12H7C7.55228 12 8 11.5523 8 11C8 10.4477 7.55228 10 7 10H5ZM18.5 5C19.8807 5 21 6.11929 21 7.5V11H16V7.5C16 6.11929 17.1193 5 18.5 5ZM5 6C4.44772 6 4 6.44772 4 7C4 7.55228 4.44772 8 5 8H11C11.5523 8 12 7.55228 12 7C12 6.44772 11.5523 6 11 6H5Z" fill="#222222"/>
</svg>
