<svg width="24" height="24" viewBox="0 0 24 24" fill="none" xmlns="http://www.w3.org/2000/svg">
<path d="M11 4C14.866 4 18 7.13401 18 11C18 14.866 14.866 18 11 18C7.13401 18 4 14.866 4 11C4 7.13401 7.13401 4 11 4ZM11 6C10.4256 6 9.85612 6.09899 9.31641 6.29199L9.08691 6.38086C8.55611 6.60073 8.06742 6.90994 7.64258 7.29492L7.46484 7.46484C7.0587 7.87099 6.72563 8.34325 6.48047 8.86133L6.38086 9.08691C6.12964 9.69349 6 10.3435 6 11L6.00488 11.1025C6.05621 11.6067 6.48232 12 7 12C7.51768 12 7.94379 11.6067 7.99512 11.1025L8 11C8 10.606 8.07775 10.2155 8.22852 9.85156L8.35449 9.58594C8.49333 9.32619 8.66989 9.08792 8.87891 8.87891L9.09668 8.68066C9.32423 8.49393 9.57864 8.34161 9.85156 8.22852L10.1299 8.12891C10.4115 8.04356 10.7047 8 11 8C11.5523 8 12 7.55228 12 7C12 6.44772 11.5523 6 11 6Z" fill="black"/>
<path d="M20 20L18 18" stroke="black" stroke-width="2" stroke-linecap="round"/>
</svg>
