<svg width="24" height="24" viewBox="0 0 24 24" fill="none" xmlns="http://www.w3.org/2000/svg">
<path d="M16.2051 5.2647C17.8609 4.71277 18.689 4.43706 19.126 4.87407C19.5628 5.31113 19.2872 6.13938 18.7354 7.79497L15.8975 16.3077C15.1131 18.6607 14.7207 19.8378 14 19.8379C13.2792 19.8379 12.8869 18.6609 12.1025 16.3077L11.3535 14.0596L15.707 9.70708L15.7754 9.63091C16.0957 9.23819 16.073 8.65914 15.707 8.29302C15.3409 7.92691 14.7619 7.90433 14.3691 8.22466L14.293 8.29302L9.93945 12.6465L7.69238 11.8975C5.33933 11.1132 4.16227 10.7207 4.16211 10.0001C4.16211 9.27929 5.33917 8.88699 7.69238 8.10259L16.2051 5.2647Z" fill="black"/>
</svg>
