<svg width="24" height="24" viewBox="0 0 24 24" fill="none" xmlns="http://www.w3.org/2000/svg">
<path d="M12.2061 17.0039C13.2337 17.0463 14.2253 17.405 15.0439 18.0332L15.2051 18.1621C15.9418 18.7773 16.4861 19.5918 16.7725 20.5078L16.8301 20.7061L16.8428 20.748C15.4077 21.5442 13.7575 22 12 22C10.2422 22 8.59153 21.5445 7.15625 20.748C7.16066 20.7341 7.16609 20.7203 7.16992 20.7061C7.45479 19.6429 8.08287 18.7032 8.95605 18.0332L9.12207 17.9111C9.96317 17.3191 10.9681 17 12 17L12.2061 17.0039ZM12 2C17.5228 2 22 6.47715 22 12C22 15.0143 20.6641 17.7144 18.5547 19.5479C18.1304 18.4135 17.4193 17.4059 16.4863 16.627L16.2617 16.4463C15.1155 15.5668 13.7269 15.0651 12.2881 15.0059L12 15C10.5553 15 9.14824 15.4465 7.9707 16.2754L7.73828 16.4463C6.69452 17.2472 5.90216 18.3238 5.44434 19.5479C3.33525 17.7144 2 15.014 2 12C2 6.47715 6.47715 2 12 2ZM12 5C9.79086 5 8 6.79086 8 9C8 11.2091 9.79086 13 12 13C14.2091 13 16 11.2091 16 9C16 6.79086 14.2091 5 12 5ZM12 7C13.1046 7 14 7.89543 14 9C14 10.1046 13.1046 11 12 11C10.8954 11 10 10.1046 10 9C10 7.89543 10.8954 7 12 7Z" fill="#222222"/>
<rect x="2.5" y="2.5" width="19" height="19" rx="9.5" stroke="#222222"/>
</svg>
