<svg width="53" height="54" viewBox="0 0 53 54" fill="none" xmlns="http://www.w3.org/2000/svg">
<path fill-rule="evenodd" clip-rule="evenodd" d="M44.0404 22.2702C45.137 22.1376 46.1335 22.9191 46.2661 24.0156L46.4651 25.6613L46.5227 27.4053L46.4282 29.1476L46.1822 30.8752L45.7865 32.5746L45.2443 34.2332L44.5595 35.8382L43.7375 37.3773L42.7844 38.839L41.7615 40.1434C41.0799 41.0125 39.8227 41.1646 38.9535 40.4829C38.0844 39.8013 37.9324 38.5441 38.614 37.6749L39.5292 36.508L40.2914 35.3389L40.9489 34.1078L41.4966 32.8241L41.9303 31.4976L42.2468 30.1383L42.4436 28.7566L42.5192 27.363L42.473 25.9681L42.295 24.4958C42.1624 23.3992 42.9439 22.4028 44.0404 22.2702Z" fill="#6750A4"/>
<path fill-rule="evenodd" clip-rule="evenodd" d="M42.5761 18.6256C41.6927 19.2887 40.439 19.1102 39.7759 18.2268L38.8856 17.0408L37.9536 16.0019L36.9347 15.0482L35.8365 14.187L34.6674 13.4247L33.4363 12.7672L32.1526 12.2195L30.826 11.7858L29.4667 11.4693L28.085 11.2726L26.6914 11.197L25.2965 11.2431L23.911 11.4106L22.5453 11.6983L21.2098 12.1039L19.9149 12.6243L18.6702 13.2557L17.4852 13.9931L16.3691 14.831L15.3302 15.7629L14.3765 16.7819L13.5152 17.8801L12.7529 19.0492L12.0954 20.2803L11.5477 21.564L11.114 22.8905L10.7976 24.2498L10.6008 25.6315L10.5252 27.0252L10.5713 28.42L10.7389 29.8056L11.0265 31.1713L11.4321 32.5067L11.9526 33.8017L12.5839 35.0464L13.3213 36.2313L14.1592 37.3475L15.0912 38.3864L16.1101 39.3401L17.2083 40.2014L18.3774 40.9636L19.6085 41.6211L20.8922 42.1688L22.2188 42.6025L23.578 42.919L24.9598 43.1158L26.3534 43.1914L27.7482 43.1452L29.1338 42.9777L30.4995 42.69L31.8349 42.2844L33.211 41.7314C34.2359 41.3195 35.4006 41.8164 35.8125 42.8413C36.2244 43.8662 35.7275 45.031 34.7026 45.4429L33.1645 46.061L31.4949 46.5681L29.7874 46.9278L28.0551 47.1373L26.3111 47.1949L24.5687 47.1004L22.8412 46.8544L21.1417 46.4587L19.4832 45.9165L17.8782 45.2317L16.339 44.4097L14.8773 43.4566L13.5043 42.3798L12.2303 41.1874L11.0651 39.8885L10.0175 38.493L9.09555 37.0116L8.30622 35.4553L7.65553 33.8363L7.14843 32.1666L6.78877 30.4592L6.5793 28.7268L6.5216 26.9828L6.61613 25.2405L6.86216 23.513L7.25781 21.8135L7.80007 20.1549L8.48483 18.5499L9.30685 17.0108L10.2599 15.5491L11.3367 14.176L12.5291 12.902L13.828 11.7368L15.2235 10.6893L16.705 9.76731L18.2612 8.97798L19.8803 8.32729L21.5499 7.82019L23.2574 7.46053L24.9897 7.25106L26.7337 7.19337L28.4761 7.2879L30.2036 7.53392L31.9031 7.92957L33.5616 8.47184L35.1666 9.15659L36.7058 9.97862L38.1675 10.9317L39.5405 12.0085L40.8145 13.2009L41.9797 14.4998L42.9749 15.8254C43.638 16.7088 43.4594 17.9625 42.5761 18.6256Z" fill="#E8DEF8"/>
<circle cx="27" cy="23.6965" r="4" fill="#880A9F"/>
<circle cx="32" cy="23.6965" r="3" fill="#880A9F"/>
<circle cx="22" cy="23.6965" r="3" fill="#880A9F"/>
<path d="M32 27.6965C34.4478 27.6966 35.4286 30.1421 35.7969 31.6125C35.9406 32.1864 35.4862 32.6965 34.8945 32.6965H32.5684C32.1653 31.1869 31.3855 29.4746 29.8779 28.4963C30.4201 28.0175 31.1137 27.6965 32 27.6965Z" fill="#880A9F"/>
<path d="M22.0004 27.6965C22.8861 27.6966 23.5786 28.018 24.1206 28.4963C22.6136 29.4747 21.8341 31.1872 21.4311 32.6965H19.1049C18.5133 32.6965 18.0598 32.1864 18.2036 31.6125C18.5718 30.1421 19.5527 27.6965 22.0004 27.6965Z" fill="#880A9F"/>
<path d="M27 28.6965C30.7087 28.6965 31.6665 31.9975 31.9139 33.7026C31.9932 34.2492 31.5523 34.6965 31 34.6965H23C22.4477 34.6965 22.0068 34.2492 22.0861 33.7026C22.3335 31.9975 23.2913 28.6965 27 28.6965Z" fill="#880A9F"/>
</svg>
