<svg width="24" height="24" viewBox="0 0 24 24" fill="none" xmlns="http://www.w3.org/2000/svg">
<path d="M18 8.75556V6.8C18 4.53726 18 3.40589 17.2247 2.70294C16.4494 2 15.2016 2 12.7059 2H8.29412C5.79845 2 4.55061 2 3.77531 2.70294C3 3.40589 3 4.53726 3 6.8V13.2C3 15.4627 3 16.5941 3.77531 17.2971C4.55061 18 5.79845 18 8.29412 18H12.7059" stroke="black" stroke-width="1.5" stroke-linecap="round"/>
<path d="M6 6L15 6" stroke="black" stroke-width="1.5" stroke-linecap="round" stroke-linejoin="round"/>
<path d="M6 10H7" stroke="black" stroke-width="1.5" stroke-linecap="round" stroke-linejoin="round"/>
<path d="M10 10H11" stroke="black" stroke-width="1.5" stroke-linecap="round" stroke-linejoin="round"/>
<path d="M14 10H15" stroke="black" stroke-width="1.5" stroke-linecap="round" stroke-linejoin="round"/>
<path d="M6 14H7" stroke="black" stroke-width="1.5" stroke-linecap="round" stroke-linejoin="round"/>
<path d="M10 14H11" stroke="black" stroke-width="1.5" stroke-linecap="round" stroke-linejoin="round"/>
<path d="M19.9819 15.1934C20.0889 15.5936 20.5 15.8313 20.9001 15.7244C21.3003 15.6175 21.538 15.2064 21.4311 14.8062L19.9819 15.1934ZM15.7201 18.7902C15.6043 18.3925 15.1881 18.1639 14.7904 18.2797C14.3927 18.3955 14.1641 18.8117 14.2799 19.2094L15.7201 18.7902ZM18.7274 12C18.7274 11.5858 18.3916 11.25 17.9774 11.25C17.5632 11.25 17.2274 11.5858 17.2274 12H18.7274ZM17.2274 22C17.2274 22.4142 17.5632 22.75 17.9774 22.75C18.3916 22.75 18.7274 22.4142 18.7274 22H17.2274ZM17.9774 16.8704V16.1204C17.009 16.1204 16.4842 15.982 16.2213 15.8248C16.1044 15.7549 16.0497 15.6875 16.0187 15.6291C15.9857 15.567 15.9566 15.471 15.9566 15.3148H15.2066H14.4566C14.4566 15.6598 14.522 16.0088 14.6937 16.3323C14.8674 16.6596 15.1275 16.9184 15.4514 17.1121C16.0701 17.4821 16.9306 17.6204 17.9774 17.6204V16.8704ZM15.2066 15.3148H15.9566C15.9566 15.1487 16.0599 14.9008 16.4291 14.6589C16.7918 14.4214 17.337 14.25 17.9774 14.25V13.5V12.75C17.0875 12.75 16.2474 12.9849 15.6072 13.4041C14.9736 13.8192 14.4566 14.4786 14.4566 15.3148H15.2066ZM21 18.6852H20.25C20.25 19.0063 20.1119 19.2302 19.7618 19.4169C19.3692 19.6263 18.7541 19.75 17.9774 19.75V20.5V21.25C18.87 21.25 19.7662 21.1145 20.4676 20.7405C21.2114 20.3439 21.75 19.6604 21.75 18.6852H21ZM17.9774 16.8704V17.6204C18.9509 17.6204 19.5412 17.7512 19.8686 17.9407C20.0171 18.0267 20.1007 18.1186 20.1527 18.2139C20.2064 18.3125 20.25 18.4587 20.25 18.6852H21H21.75C21.75 18.2635 21.6676 17.8588 21.4695 17.4956C21.2696 17.1291 20.9754 16.8483 20.6201 16.6426C19.9399 16.2488 19.019 16.1204 17.9774 16.1204V16.8704ZM17.9774 13.5V14.25C18.5471 14.25 19.0447 14.3859 19.4046 14.5859C19.7732 14.7908 19.9367 15.0242 19.9819 15.1934L20.7065 14.9998L21.4311 14.8062C21.2486 14.1233 20.7307 13.6068 20.1332 13.2748C19.527 12.9379 18.7739 12.75 17.9774 12.75V13.5ZM17.9774 20.5V19.75C17.3349 19.75 16.7718 19.6094 16.3632 19.4013C15.9402 19.1857 15.7652 18.945 15.7201 18.7902L15 18.9998L14.2799 19.2094C14.4829 19.907 15.0513 20.4163 15.6823 20.7378C16.3277 21.0666 17.1292 21.25 17.9774 21.25V20.5ZM17.9774 13.5H18.7274V12H17.9774H17.2274V13.5H17.9774ZM17.9774 20.5H17.2274V22H17.9774H18.7274V20.5H17.9774Z" fill="black"/>
</svg>
